<svg xmlns="http://www.w3.org/2000/svg" preserveAspectRatio = "none" width="100%" height="100%" viewBox="0 0 369.78 282.68"><g data-name="Livello 2"><g data-name="Frame 1" fill="none" stroke="#000" stroke-miterlimit="10"><path d="M368.78 18.08v246.53a10.69 10.69 0 00-10.69 10.69H11.69A10.69 10.69 0 001 264.61V18.08a10.7 10.7 0 0010.69-10.7h346.4a10.7 10.7 0 0010.69 10.7z" stroke-width="2"/><path d="M1 35.34a27.82 27.82 0 013.79-14.06v240.11a27.79 27.79 0 01-3.79-14zM14.38 271.2h341a27.88 27.88 0 01-14.59 4.1H29a27.88 27.88 0 01-14.62-4.1zM340.81 7.37a27.88 27.88 0 0114.59 4.1h-341A27.88 27.88 0 0129 7.37zM368.78 35.34v212a27.79 27.79 0 01-3.79 14V21.28a27.82 27.82 0 013.79 14.06z"/><path d="M365 21.28v240.11a28.06 28.06 0 01-9.59 9.81h-341a28.06 28.06 0 01-9.59-9.81V21.28a28.06 28.06 0 019.59-9.81h341a28.06 28.06 0 019.59 9.81zM37.87.55C33.08 4.53 29 7.37 29 7.37h86.6S64.15 7.2 37.87.55zM331.91.55c4.79 4 8.84 6.82 8.84 6.82h-86.6s51.48-.17 77.76-6.82zM37.87 282.13c-4.79-4-8.84-6.83-8.84-6.83h86.6s-51.48.18-77.76 6.83zM331.91 282.13c4.79-4 8.84-6.83 8.84-6.83h-86.6s51.48.18 77.76 6.83z"/></g></g></svg>