<?xml version="1.0" standalone="no"?>
<!DOCTYPE svg PUBLIC "-//W3C//DTD SVG 20010904//EN"
 "http://www.w3.org/TR/2001/REC-SVG-20010904/DTD/svg10.dtd">
<svg version="1.0" xmlns="http://www.w3.org/2000/svg"
 width="700.000000pt" height="700.000000pt" viewBox="0 0 700.000000 700.000000"
 preserveAspectRatio="xMidYMid meet">
<metadata>
Created by potrace 1.11, written by Peter Selinger 2001-2013
</metadata>
<g transform="translate(0.000000,700.000000) scale(0.100000,-0.100000)"
fill="#000000" stroke="none">
<path d="M0 3500 l0 -3500 3500 0 3500 0 0 3500 0 3500 -3500 0 -3500 0 0
-3500z m3475 2291 c50 -23 141 -90 218 -161 349 -319 1040 -1382 1512 -2323
l125 -249 0 -76 c0 -42 -7 -108 -15 -147 -38 -179 -169 -548 -197 -553 -12 -2
-30 24 -68 95 -115 222 -271 379 -439 444 -45 18 -77 23 -161 23 -95 0 -115
-3 -208 -36 -150 -52 -249 -115 -367 -233 -80 -79 -110 -117 -142 -180 -62
-121 -73 -203 -38 -275 18 -37 8 -50 -36 -50 -97 0 -187 50 -238 134 -26 42
-26 77 -1 152 21 60 122 457 134 527 7 36 6 38 -31 54 -52 22 -178 20 -273 -5
-154 -41 -254 -99 -374 -219 -175 -173 -256 -357 -256 -578 0 -254 86 -488
298 -813 87 -133 51 -138 -164 -21 -145 78 -260 165 -389 294 -289 289 -465
648 -505 1035 -20 193 9 459 70 643 82 245 250 471 458 616 63 45 75 64 46 75
-9 4 -96 16 -193 27 -227 27 -221 26 -221 49 0 14 18 29 68 53 149 75 324 115
542 125 205 10 203 15 -47 139 -109 55 -231 113 -271 131 -56 24 -73 36 -70
49 5 25 38 31 178 32 234 2 472 -51 724 -160 96 -42 124 -40 96 5 -57 93 -369
427 -525 563 -62 55 -68 63 -55 76 33 34 307 -22 504 -103 202 -82 475 -241
657 -381 74 -58 109 -72 109 -46 0 33 -269 677 -439 1052 -50 110 -91 207 -91
217 0 23 24 23 75 -1z"/>
<path d="M4464 3726 c-16 -88 38 -209 132 -295 53 -48 191 -141 210 -141 15 0
-11 81 -44 135 -103 173 -198 292 -254 321 -36 19 -36 19 -44 -20z"/>
</g>
</svg>
