<?xml version="1.0" encoding="utf-8"?>
<!-- Generator: Adobe Illustrator 24.3.0, SVG Export Plug-In . SVG Version: 6.00 Build 0)  -->
<svg version="1.1" id="Livello_1" xmlns="http://www.w3.org/2000/svg" xmlns:xlink="http://www.w3.org/1999/xlink" x="0px" y="0px"
	 viewBox="0 0 48 48" style="enable-background:new 0 0 48 48;" xml:space="preserve">
<style type="text/css">
	.st0{fill:none;}
</style>
<rect class="st0" width="48" height="48"/>
<polygon points="15.6,22.3 14.3,20.4 17.3,16 27.2,16 27.9,15.4 27,12.9 27.5,10.5 3.2,10.5 3,11.3 4.3,13.6 2.9,15.6 4.3,17.8 
	4,19.9 4.5,21.3 2.8,24 4.1,24.6 6.8,24.6 11.7,32 11.7,25.2 13.9,25.2 13.9,25.1 "/>
<path d="M22.4,37.1v-6.5h-6.1l0.6-2.6l-0.9-2.3l1.8-2.8l-1.3-1.8l1.8-2.7h23.3l1.8,1.4l-1.2,2.3l0.9,1.8l-1,1.3l0.8,1.6l-1.1,2.1
	l0.9,1.8h-14L22.4,37.1z M17.2,29.9h5.9v5.5l5.5-5.5h13.1l-0.6-1.1l1.1-2.1l-0.8-1.6l1-1.3l-0.9-1.7l1.1-2.1l-1.1-0.9H18.8l-1.3,2
	l1.3,1.8l-1.9,2.9l0.8,2.1L17.2,29.9z"/>
<circle cx="24.9" cy="24" r="1.1"/>
<circle cx="29.9" cy="24" r="1.1"/>
<circle cx="34.8" cy="24" r="1.1"/>
</svg>
