<?xml version="1.0" encoding="utf-8"?>
<!-- Generator: Adobe Illustrator 24.3.0, SVG Export Plug-In . SVG Version: 6.00 Build 0)  -->
<svg version="1.1" id="Livello_1" xmlns="http://www.w3.org/2000/svg" xmlns:xlink="http://www.w3.org/1999/xlink" x="0px" y="0px"
	 viewBox="0 0 48 48" style="enable-background:new 0 0 48 48;" xml:space="preserve">
<style type="text/css">
	.st0{fill:none;}
</style>
<rect class="st0" width="48" height="48"/>
<polygon points="28.5,34.7 43.5,30.3 38,28.5 "/>
<polygon points="38.2,27.7 44.1,29.6 37.8,14.6 32.8,22.8 "/>
<path d="M32.1,22.4L32.1,22.4l4.9-8.2l-9.6,2.1l2.3,5.7L32.1,22.4z"/>
<path d="M37.3,28l-5-4.6l-0.1-0.1L30,23l1.4,3.5l-5,6.4l0.4,2L37.3,28z"/>
<path d="M23.9,14.8l-12.8-2l-7.7,9.2l3.9,12.4l13,1.9l8-10.3L23.9,14.8z M11.1,13.9l1,2.8l-7,4.5L11.1,13.9z M23.5,26.1l-3.5,9.1
	l-8.3-4.7L23.5,26.1z M11.2,29.9l1.6-12.4l10.5,7.9L11.2,29.9z M13.4,17.1l9.8-1.3l0.5,9L13.4,17.1z M12.8,16.4l-1-2.8l10.1,1.6
	L12.8,16.4z M12.1,17.5l-1.6,12l-5.9-7.2L12.1,17.5z M10.8,30.8l8.1,4.6L8.3,33.9L10.8,30.8z M24.3,25.8l3,0.4L21,34.3L24.3,25.8z
	 M27.4,25.5l-3-0.4L24,16.6L27.4,25.5z M4.5,23.3l5.8,7.1l-2.6,3.1L4.5,23.3z"/>
</svg>
