<?xml version="1.0" encoding="utf-8"?>
<!-- Generator: Adobe Illustrator 24.3.0, SVG Export Plug-In . SVG Version: 6.00 Build 0)  -->
<svg version="1.1" id="Livello_1" xmlns="http://www.w3.org/2000/svg" xmlns:xlink="http://www.w3.org/1999/xlink" x="0px" y="0px"
	 viewBox="0 0 48 48" style="enable-background:new 0 0 48 48;" xml:space="preserve">
<style type="text/css">
	.st0{fill:none;}
</style>
<rect class="st0" width="48" height="48"/>
<path d="M5.8,10.9v1.7H4.3c-0.2,0-0.3,0.1-0.3,0.3v20.6c0,0.2,0.1,0.3,0.3,0.3h19.2v-1c0,0,0,0,0,0V10.9C17.8,8.7,11.5,8.7,5.8,10.9
	z M9.5,19.7V19H20v0.7H9.5z M18.3,24.4V25h-7.2v-0.6H18.3z M11.2,14.3v-0.6h7.2v0.6H11.2z M22.9,33.2H4.7V13.3h1.1v19.6
	c5.5-2.1,11.6-2.2,17.1-0.2V33.2z"/>
<path d="M44.2,12.6C44.2,12.6,44.2,12.6,44.2,12.6l-1.5,0v-1.7c-3-1.3-6.2-1.8-9.4-1.6c-0.1-0.3-0.4-0.5-0.9-0.5h-2.5
	c-0.5,0-1,0.3-1,0.7v0.3c-1.4,0.3-2.7,0.6-4,1.1v22.9h4v4.9l2.2-2.9l2.2,2.9v-4.9h10.8c0.2,0,0.3-0.1,0.3-0.3V13
	C44.5,12.8,44.4,12.7,44.2,12.6z M28.9,33.1h-3.3v-0.5c1.1-0.4,2.2-0.7,3.3-0.9V33.1z M33.1,37.9l-1.9-2.6l-2,2.6V9.5
	c0-0.2,0.3-0.4,0.7-0.4h2.5c0.4,0,0.7,0.2,0.7,0.4V37.9z M43.9,33.2H33.3v-1.9c3.2-0.2,6.4,0.3,9.4,1.6V13.3h1.2V33.2z"/>
<path d="M24.2,35c-1.1,0-2.2-0.2-2.2-0.7c0-0.1,0.1-0.3,0.5-0.4c0.1-0.1,0.3,0,0.4,0.1c0.1,0.1,0,0.2-0.1,0.3s-0.2,0.1-0.2,0.1
	c0.5,0.2,1,0.3,1.6,0.3c0.5,0.1,1.1,0,1.6-0.3l0,0c0,0-0.1-0.1-0.2-0.1c-0.1,0-0.2-0.2-0.1-0.3c0.1-0.1,0.3-0.1,0.4-0.1
	c0.4,0.1,0.5,0.3,0.5,0.4C26.5,34.8,25.3,35,24.2,35z"/>
</svg>
