<?xml version="1.0" encoding="utf-8"?>
<!-- Generator: Adobe Illustrator 24.3.0, SVG Export Plug-In . SVG Version: 6.00 Build 0)  -->
<svg version="1.1" id="Livello_1" xmlns="http://www.w3.org/2000/svg" xmlns:xlink="http://www.w3.org/1999/xlink" x="0px" y="0px"
	 viewBox="0 0 48 48" style="enable-background:new 0 0 48 48;" xml:space="preserve">
<style type="text/css">
	.st0{fill:none;}
</style>
<rect class="st0" width="48" height="48"/>
<path d="M18,25.3c-0.6,0-1-0.4-1-1s0.4-1,1-1s1,0.4,1,1S18.6,25.3,18,25.3z M18,23.4c-0.5,0-0.8,0.4-0.8,0.8s0.4,0.8,0.8,0.8
	s0.8-0.4,0.8-0.8C18.8,23.8,18.5,23.4,18,23.4z"/>
<path d="M16.8,26.8c-0.4,0-0.6-0.3-0.6-0.6c0-0.4,0.3-0.6,0.6-0.6c0.4,0,0.6,0.3,0.6,0.6c0,0,0,0,0,0C17.5,26.6,17.2,26.8,16.8,26.8
	z M16.8,25.8c-0.3,0-0.5,0.2-0.5,0.5s0.2,0.5,0.5,0.5s0.5-0.2,0.5-0.5v0C17.3,26,17.1,25.8,16.8,25.8z"/>
<path d="M15.5,24.4c-0.8,0-1.4-0.6-1.4-1.4c0-0.8,0.6-1.4,1.4-1.4c0.7,0,1.4,0.6,1.4,1.3l0,0c0.1,0.8-0.5,1.4-1.3,1.5L15.5,24.4z
	 M15.5,21.8h-0.1c-0.7,0.1-1.2,0.6-1.1,1.3c0.1,0.7,0.6,1.2,1.3,1.1c0.7-0.1,1.2-0.6,1.1-1.3c0,0,0,0,0,0l0,0
	C16.6,22.3,16.1,21.8,15.5,21.8z"/>
<path d="M26.4,30.3c-0.7-0.1-1.4-0.1-2.1,0.1c-1.1,0.4-2.1,0.9-3,1.5l0,0h-0.1c-0.2,0-0.4-0.1-0.5-0.3c-0.6-0.4-1.6-1-4-0.4
	c-1,0.3-2,0.3-3.1,0.3c-1.4-0.2-2.8-0.5-4.2-0.8c-1.2-0.2-2.2-0.8-3-1.7l0,0c0,0.3-0.1,0.6-0.1,0.9c0,2.3,0.9,4.4,2.5,6
	c1.7,1.6,3.8,2.7,6.1,3.1c2.7,0.5,5.4,0,7.8-1.3c2.3-1.3,3.9-3.5,4.3-6.1c0-0.4,0.1-0.8,0-1.2C26.8,30.3,26.6,30.3,26.4,30.3z"/>
<path d="M42,25.4v-5.6c0.3-0.1,0.5-0.5,0.5-0.8v-0.8c0-0.5-0.4-0.9-0.9-0.9h-0.1l0.3-2.7c0-0.2,0-0.4-0.2-0.6
	c-0.2-0.2-0.4-0.3-0.6-0.3l-3-0.2c-0.2,0-0.5,0.1-0.6,0.2c-0.2,0.2-0.2,0.4-0.2,0.6l0.5,2.8c-0.5,0-0.8,0.4-0.8,0.9V19
	c0,0.4,0.3,0.8,0.7,0.9v5.6h-3.3v-3.2h0.4c0.5,0,0.9-0.4,0.9-0.9v-0.2c0-0.5-0.4-0.9-0.9-0.9h-0.4l0.9-3.4c0-0.2,0-0.3-0.1-0.5
	c-0.2-0.2-0.4-0.3-0.7-0.2l-5,0.7l1,3.4h-0.4c-0.5,0-0.9,0.4-0.9,0.9v0.2c0,0.5,0.4,0.9,0.9,0.9h0.4v3.2h-2.8c-0.3-0.5-0.6-1-1-1.4
	c-1-1.2-2.2-2.2-3.6-3c-0.7-0.4-1.4-0.7-2.1-0.9L20.5,20c-0.2,0-0.4-0.1-0.5-0.2v-0.7l0.4-7.1h0.1c0.8-0.1,1.2-0.4,1.3-0.8l0.2-2.3
	v0c0-0.6-0.9-1-1.8-1.2l-0.2,0.6c0.8,0.2,1.3,0.5,1.4,0.6c-0.1,0.2-1.3,0.5-3,0.4c-1.7-0.1-2.8-0.6-2.9-0.8c0.1-0.1,0.6-0.3,1.4-0.4
	l-0.1-0.6c-0.2,0-0.5,0.1-0.7,0.1c-0.8,0.2-1.2,0.4-1.3,0.8l-0.2,2.3c0,0.4,0.3,0.7,1.1,1h0.1L14.8,19c0,0.1,0,0.2-0.1,0.3
	c-0.1,0.2-0.4,0.2-0.7,0.3c-2.6,0.4-5,1.6-6.9,3.4c-3.3,3.3-3.8,8.5-1.1,12.3l-3.4,5.9l0.9,0.5l3.2-5.5c0.3,0.3,0.6,0.6,0.9,0.9
	c2,1.9,4.6,3.1,7.3,3.5c0.7,0.1,1.3,0.2,2,0.2c2.5,0,4.9-0.7,7-2c1.1-0.7,2-1.6,2.8-2.6l3.1,5.4l0.9-0.5l-3.3-5.8
	c0.7-1.2,1.2-2.5,1.4-3.9c0.2-1.7-0.1-3.3-0.8-4.9h2.3v8.8c0,1.1,0.9,2,2,2c1.1,0,2-0.9,2-2v-8.8h3.3v9.5c0,1.2,1,2.2,2.2,2.2
	c1.2,0,2.2-1,2.2-2.2v-9.5h1.5v15h1v-16H42z M15.1,10.7l0.1-1.5c0.9,0.4,1.9,0.7,2.9,0.7h0.9c0.7,0,1.4-0.1,2.1-0.3l-0.1,1.5
	c-0.1,0.2-1.2,0.5-3,0.4C16.3,11.3,15.2,10.9,15.1,10.7z M28.2,31.2c-0.4,2.9-2.1,5.5-4.6,7.1c-2.6,1.6-5.6,2.2-8.6,1.7
	c-2.6-0.3-5.1-1.5-7-3.3c-1.9-1.8-2.9-4.2-3-6.7c0-2.4,1-4.8,2.7-6.5c1.8-1.8,4.1-2.9,6.6-3.2c0.4,0,0.8-0.2,1.1-0.5
	c0.1-0.2,0.2-0.3,0.2-0.5l0.9-7.3c0.5,0.1,1.1,0.2,1.6,0.3h1.7l-0.3,7v0.2c0,0.1,0,0.3,0,0.4c-0.3,0.2-0.6,0.2-0.9,0.2l0,0.6h0.2
	c0.3,0,0.6-0.1,0.9-0.2c0.2,0.2,0.5,0.3,0.8,0.3l0.3,0.1c0.7,0.2,1.4,0.5,2,0.9c1.3,0.7,2.5,1.7,3.4,2.8
	C27.6,26.3,28.4,28.7,28.2,31.2z M30.1,17.3l4.3-0.6c0,0,0.1,0,0.1,0l-0.9,3.5h-2.7L30.1,17.3z M33.7,22.5h-1v0.4h1v0.8h-1v0.4h1V25
	h-1v0.4h1v0.8h-1v0.4h1v0.8h-1v0.4h1v0.8h-1v0.4h1v0.8h-1v0.4h1v0.8h-1v0.4h1v0.8h-1v0.4h1v0.8h-1V34h1v0.8h-1v0.4h1
	c0,0.8-0.6,1.4-1.4,1.4s-1.4-0.6-1.4-1.4v-13h2.8V22.5z M29.9,21.6c-0.2,0-0.3-0.1-0.3-0.3v-0.2c0-0.2,0.1-0.3,0.3-0.3h4.7
	c0.2,0,0.3,0.2,0.3,0.3v0.2c0,0.2-0.1,0.3-0.3,0.3H29.9z M37.9,14.3c0,0,0.1-0.1,0.2-0.1l3,0.1c0.1,0,0.1,0,0.2,0.1c0,0,0,0.1,0,0.1
	L41,17.3h-2.7l-0.4-2.9C37.9,14.4,37.9,14.3,37.9,14.3z M41.5,35.9c0,0.9-0.7,1.6-1.6,1.6c-0.9,0-1.6-0.7-1.6-1.6v-16h3.3V35.9z
	 M41.6,19.3h-3.8c0,0-0.1,0-0.1,0c-0.1,0-0.2-0.2-0.2-0.3v-0.8c0-0.2,0.1-0.3,0.3-0.3h3.9c0.2,0,0.3,0.1,0.3,0.3V19
	c0,0.1-0.1,0.2-0.2,0.3C41.8,19.3,41.7,19.3,41.6,19.3z"/>
<path d="M41,21h-0.7v13.1h-0.6V21h-1c-0.1,0-0.1,0.1-0.1,0.1v14.4c-0.1,0.7,0.4,1.4,1.1,1.5c0.7,0.1,1.4-0.4,1.5-1.1
	c0-0.1,0-0.2,0-0.3V21.1C41.1,21.1,41.1,21,41,21C41,21,41,21,41,21z"/>
<path d="M19.9,8.3l-0.1,0.3C19.9,8.6,20,8.7,20,8.7c0,0.2-0.8,0.3-1.7,0.2c-0.9-0.1-1.7-0.3-1.7-0.5c0,0,0.1-0.1,0.2-0.1l0-0.3
	l-0.1-0.6l-0.3-2l0.1,0c0,0-0.1,0-0.1,0C17.1,5.1,17.8,5,18.5,5c0.7-0.1,1.5-0.1,2.2,0.1L20,7.7L19.9,8.3z"/>
<path d="M26.6,29.3c-1.3-0.9-5.2-1.8-9.8-2.1c-6.1-0.5-10.4,0.2-10.4,1c0,0.2,0.1,0.4,0.3,0.6c0.7,0.8,1.7,1.3,2.7,1.5
	c1.4,0.4,2.8,0.7,4.2,0.9c1,0.1,2,0,3-0.3c0.6-0.2,1.2-0.3,1.9-0.3c0.8,0,1.7,0.3,2.3,0.8c0.1,0.1,0.3,0.2,0.4,0.2
	c1-0.6,2-1.1,3-1.5c0.5-0.1,0.9-0.2,1.4-0.1c0.8,0,1.4,0.2,1.4,0S26.9,29.5,26.6,29.3z"/>
</svg>
