<?xml version="1.0" encoding="utf-8"?>
<!-- Generator: Adobe Illustrator 24.3.0, SVG Export Plug-In . SVG Version: 6.00 Build 0)  -->
<svg version="1.1" id="Livello_1" xmlns="http://www.w3.org/2000/svg" xmlns:xlink="http://www.w3.org/1999/xlink" x="0px" y="0px"
	 viewBox="0 0 48 48" style="enable-background:new 0 0 48 48;" xml:space="preserve">
<style type="text/css">
	.st0{fill:none;}
</style>
<rect class="st0" width="48" height="48"/>
<path d="M12.1,18c-0.3,0-0.5,0.2-0.5,0.5l0,0c0,0.3,0.2,0.5,0.5,0.5s0.5-0.2,0.5-0.5l0,0C12.6,18.2,12.4,18,12.1,18z"/>
<path d="M23.3,11.2c-0.2,0-0.3,0.2-0.3,0.3l0,0l0,0c0,0.2,0.2,0.3,0.3,0.3c0.2,0,0.3-0.2,0.3-0.3l0,0l0,0
	C23.6,11.3,23.5,11.2,23.3,11.2C23.3,11.2,23.3,11.2,23.3,11.2z M23.3,11.7c-0.1,0-0.1-0.1-0.1-0.1c0-0.1,0.1-0.2,0.1-0.2
	c0.1,0,0.1,0.1,0.1,0.1v0C23.4,11.6,23.4,11.7,23.3,11.7z"/>
<path d="M15.3,25.4l0.3-6.5c0-0.2-0.2-0.4-0.4-0.4h-2c0,0.6-0.4,1-1,1s-1-0.4-1-1H8.9c0,0-0.1,0-0.1,0.1c0,0,0,0,0,0l0,0
	c0.2,0.8,0.3,1.6,0.3,2.4l-0.3,5.6c0,0.2,0.2,0.3,0.3,0.3l0,0h6.2c0.1,0,0.2-0.1,0.2-0.2c0,0,0,0,0-0.1
	C15.3,26.3,15.2,25.9,15.3,25.4z"/>
<path d="M40.4,30.3h-8.7v-11c0-0.5,0.4-0.9,0.9-0.9l0,0h7.8L40.4,30.3z M32.4,29.6h7.2V19.1h-7c-0.1,0-0.2,0.1-0.2,0.1c0,0,0,0,0,0
	L32.4,29.6z"/>
<circle cx="36" cy="19.9" r="0.5"/>
<path d="M28.3,34.3h-9.5v-6.7h4.5v0.1c0.1,0.2,0.3,0.4,0.6,0.4c0.3,0,0.5-0.2,0.6-0.4v-0.1h4.2v6.3C28.7,34.1,28.5,34.2,28.3,34.3z
	 M19.3,33.9h9.1l0,0V28h-3.5c-0.2,0.5-0.8,0.7-1.3,0.5c-0.2-0.1-0.4-0.3-0.5-0.5h-3.8L19.3,33.9z"/>
<path d="M23.9,27.1c-0.2,0-0.4,0.2-0.4,0.4c0,0.2,0.2,0.4,0.4,0.4s0.4-0.2,0.4-0.4C24.3,27.3,24.2,27.1,23.9,27.1
	C23.9,27.1,23.9,27.1,23.9,27.1z"/>
<path d="M45.3,26.2l-0.1-1.5l-0.3-2.6c-0.3-2.9-0.2-5.9,0.3-8.8c0-0.2-0.1-0.4-0.4-0.5l0,0c-4,0.4-8.1,0.4-12.1,0.1l-9.3-2.2
	c-0.1,0-0.2,0-0.3,0l-6.2,2.2h-0.5h-0.5c-4.1,0.4-8.2,0.4-12.2,0c-0.2,0-0.4,0.3-0.4,0.5c0.4,2.9,0.5,5.9,0.3,8.8l-0.2,2.6l-0.1,1.5
	c-0.2,2.5,0.5,5,0.6,7.5c0,1.5-0.6,3.1-0.5,4.6l0,0c0,0.2,0.1,0.4,0.4,0.5l6.5-0.4c0.2,0,0.4,0,0.6,0l5.5,0.4h0.1l1.6-0.2
	c1.3-0.1,2.6-0.1,3.9,0.2h0.2h4.2h0.2c1.3-0.2,2.6-0.3,3.9-0.2l1.6,0.2h0.1l5.5-0.4c0.2,0,0.4,0,0.6,0l6.5,0.4
	c0.2,0,0.4-0.3,0.4-0.5l0,0c0.2-1.8-0.5-3.5-0.5-5.3C44.7,30.7,45.4,28.5,45.3,26.2z M23.2,11L23.2,11l7.5,1.8H18.1L23.2,11z
	 M42.3,36c0,0.2-0.2,0.4-0.5,0.4H6.4c-0.2,0-0.4-0.2-0.5-0.4V15.9c0-0.2,0.2-0.4,0.5-0.4h35.5c0.2,0,0.4,0.2,0.5,0.4V36z"/>
</svg>
