<?xml version="1.0" encoding="utf-8"?>
<!-- Generator: Adobe Illustrator 24.3.0, SVG Export Plug-In . SVG Version: 6.00 Build 0)  -->
<svg version="1.1" id="Livello_1" xmlns="http://www.w3.org/2000/svg" xmlns:xlink="http://www.w3.org/1999/xlink" x="0px" y="0px"
	 viewBox="0 0 48 48" style="enable-background:new 0 0 48 48;" xml:space="preserve">
<style type="text/css">
	.st0{fill:none;}
</style>
<rect class="st0" width="48" height="48"/>
<path d="M12.6,37.3c-3.6,0-6.6-2.9-6.6-6.6c0-1.4,0.4-2.7,1.3-3.9l0.2,0.2c-2,2.8-1.4,6.7,1.4,8.7c1.1,0.8,2.3,1.2,3.6,1.2
	c2,0,3.8-0.9,5-2.5l0.2,0.2C16.7,36.3,14.7,37.3,12.6,37.3z"/>
<path d="M19,32.2l-0.3-0.1c0.1-0.5,0.2-0.9,0.2-1.4c0-0.9-0.2-1.7-0.5-2.5l0.3-0.1C19.2,29.4,19.3,30.9,19,32.2z"/>
<path d="M35.7,37.3c-3.6,0-6.6-2.9-6.6-6.6c0-1.4,0.4-2.7,1.3-3.9l0.2,0.2c-2,2.8-1.4,6.7,1.4,8.7c1.1,0.8,2.3,1.2,3.6,1.2
	c2,0,3.9-1,5.1-2.6l0.2,0.2C39.8,36.3,37.8,37.3,35.7,37.3z"/>
<path d="M42.1,32.2l-0.3-0.1c0.3-1.3,0.2-2.6-0.3-3.9l0.3-0.1c0.4,0.8,0.5,1.7,0.5,2.6C42.3,31.3,42.2,31.7,42.1,32.2z"/>
<path d="M44.9,29h1L45,27.8c-0.7-2.3-2.1-4.3-4.2-5.6L33,11.6c-0.7-0.9-1.8-1.4-3-1.3c-1.2,0.2-2.2,1-2.6,2.1l0,0.1l1,0.4l0-0.1
	c0.3-0.8,1-1.3,1.8-1.4c0.8-0.1,1.5,0.2,2,0.9l6.7,9c-1-0.4-2.1-0.5-3.2-0.5c-4.7,0-8.8,3.4-9.6,8.1c-1.2-1-3-1-4.3,0
	c-0.8-4.5-4.6-7.7-9.2-7.7c-1,0-2,0.2-2.9,0.5l6.8-9.1c0.5-0.6,1.2-1,2-0.9c0.8,0.1,1.5,0.7,1.8,1.4l0,0.1l1-0.4l0-0.1
	c-0.4-1.1-1.4-1.9-2.6-2.1c-1.2-0.2-2.3,0.3-3,1.3L7.8,22.5c-2,1.3-3.5,3.3-4.1,5.6l-0.8,1.1h1.1v2.5H3.5v0.2
	c0.9,5.1,5.7,8.5,10.7,7.6c4.4-0.7,7.7-4.6,7.8-9.1c0-0.2,0-0.3,0-0.5c0.9-1.1,2.5-1.3,3.6-0.5c0.2,0.1,0.3,0.2,0.4,0.4
	c0,0.2,0,0.4,0,0.5c0,5.4,4.3,9.7,9.7,9.7c4.9,0,9-3.6,9.6-8.4v-0.2h-0.4L44.9,29z M12.7,38.4c-4.4,0-8-3.6-8-8s3.6-8,8-8s8,3.6,8,8
	S17.1,38.4,12.7,38.4z M35.7,38.7c-4.6,0-8.3-3.7-8.3-8.3c0-4.6,3.7-8.3,8.3-8.3c4.6,0,8.3,3.7,8.3,8.3c0,0,0,0,0,0
	C44,35,40.3,38.7,35.7,38.7z"/>
<polygon points="3.5,29.4 3.3,29.4 2.9,29.4 2.9,29.4 2.9,31.3 3.3,31.3 3.5,31.3 3.5,29.4 "/>
<rect x="45.3" y="29.3" width="0.6" height="2"/>
</svg>
