<?xml version="1.0" encoding="utf-8"?>
<!-- Generator: Adobe Illustrator 24.3.0, SVG Export Plug-In . SVG Version: 6.00 Build 0)  -->
<svg version="1.1" id="Livello_1" xmlns="http://www.w3.org/2000/svg" xmlns:xlink="http://www.w3.org/1999/xlink" x="0px" y="0px"
	 viewBox="0 0 48 48" style="enable-background:new 0 0 48 48;" xml:space="preserve">
<style type="text/css">
	.st0{fill:none;}
</style>
<rect class="st0" width="48" height="48"/>
<path d="M7.7,15.5H2.1c0,0,0.2-3.6,1.2-3.9C3.3,11.6,6.7,13,7.7,15.5z"/>
<path d="M28.7,35.3H16.3c0,0.4,0,0.8-0.1,1.2c0,0.2-0.1,0.4-0.2,0.6l15,0.2h0.7c0.1,0,0.2,0,0.2-0.1c0.3-0.6,0.4-1.3,0.4-1.9
	L28.7,35.3z"/>
<path d="M45.2,9.6c-0.4,0-9.8,0-16,17.9v0.1l1.5,3.4l-0.8,2.9l1.3-2.7l5.1-2.5L41,16.6l0.5-0.4l0.1-0.1c0,0,1.9-4.4,3.8-5.9l0.8-0.6
	L45.2,9.6z M41,15.8l-4.5,3.5l3.4-1.5l-4.1,10.4l-4.5,2.3l-1.3-2.8c4.9-13.8,11.7-16.6,14.3-17.1C42.9,12.1,41.8,13.9,41,15.8z"/>
<path d="M25.3,11.7c-0.6-0.4-1.3-0.6-2-0.6h-19l0,0l0,0c1.3,0.4,7,2.9,4.6,11.3c0,0-4.7,13.3,2.9,15.4c0.7,0.2,1.4,0.1,2-0.1l0,0
	c0.7-0.1,1.3-0.6,1.5-1.3c0.2-0.7,0.1-1.3-0.3-1.9h13.2c-2-4.6,0.6-12.1,0.6-12.1C30.6,16.1,27.1,12.9,25.3,11.7z M12.4,16.3
	l-0.3-1.5h7.4c0.6,0,1,0.4,1,1v6.3c0,0.6-0.4,1-1,1h-7.7l0.4-1.8C12.7,19.7,12.7,17.9,12.4,16.3z M23.9,30.5H11.7v-0.9h12.2V30.5z
	 M23.9,27.2H11.8v-0.5l0,0v-0.5h12.1V27.2z"/>
</svg>
