<?xml version="1.0" encoding="utf-8"?>
<!-- Generator: Adobe Illustrator 24.3.0, SVG Export Plug-In . SVG Version: 6.00 Build 0)  -->
<svg version="1.1" id="Livello_1" xmlns="http://www.w3.org/2000/svg" xmlns:xlink="http://www.w3.org/1999/xlink" x="0px" y="0px"
	 viewBox="0 0 48 48" style="enable-background:new 0 0 48 48;" xml:space="preserve">
<style type="text/css">
	.st0{fill:none;}
</style>
<rect class="st0" width="48" height="48"/>
<path d="M15.8,7L14,6.3c-1.5-0.5-5.1,6-8,14.6S2,37,3.6,37.4L5.4,38c0.5,0.2,1.1-0.1,1.3-0.6l4.9-14.6l0,0l4.9-14.6
	C16.6,7.7,16.3,7.2,15.8,7z"/>
<rect x="9.4" y="23" transform="matrix(0.3183 -0.948 0.948 0.3183 -13.871 28.3242)" width="6.7" height="1.6"/>
<polygon points="35.6,12.9 35.5,13.1 35.4,13.3 35.2,13.2 32.7,12.4 32.5,12.3 32.6,12.1 32.6,11.9 32.5,11.8 32.3,12.6 32.1,12.9 
	35.3,14 35.5,13.6 35.7,12.9 "/>
<polygon points="33.2,11.2 33.1,11.4 33,11.7 35.4,12.5 35.5,12.3 35.6,12 "/>
<path d="M36.6,8.2l-2.1-0.7c-0.2-0.1-0.3,0-0.4,0.2l0,0l-0.3,0.9l2.6,0.9l0.3-0.9C36.9,8.4,36.8,8.2,36.6,8.2L36.6,8.2z"/>
<path d="M36.9,4.3c-1-0.3-2.1-0.5-3.2-0.5c-1.9,0-3.4,0.7-3.8,1.8c-0.4,1.3,0.5,2.8,2.2,3.9l-0.2,0.7l0.6,0.2l4.1,1.4l0.5,0.2
	l0.2-0.7c0.2,0,0.4,0,0.5,0c1.9,0,3.4-0.7,3.8-1.8C42.3,7.7,40.1,5.4,36.9,4.3z M40.7,9.2c-0.2,0.7-1.3,1.1-2.8,1.1
	c-0.1,0-0.3,0-0.4,0l-4.8-1.6c-0.4-0.3-0.8-0.6-1.1-0.9c-0.5-0.5-0.8-1.2-0.7-1.9c0.2-0.7,1.3-1.1,2.8-1.1l0,0c1,0,2,0.2,2.9,0.5
	C39.4,6.2,41.1,8.1,40.7,9.2z"/>
<rect x="24" y="39.7" transform="matrix(0.3186 -0.9479 0.9479 0.3186 -21.1247 50.9255)" width="1.7" height="1"/>
<rect x="16.6" y="23.8" transform="matrix(0.3218 -0.9468 0.9468 0.3218 -11.7733 32.8743)" width="1" height="1.7"/>
<rect x="31.8" y="16.5" transform="matrix(0.3262 -0.9453 0.9453 0.3262 5.9363 42.2768)" width="1.7" height="1"/>
<rect x="39.8" y="31.6" transform="matrix(0.3218 -0.9468 0.9468 0.3218 -3.3872 60.1222)" width="1" height="1.7"/>
<path d="M35.1,28.7l-5.4-0.4c-0.1-0.3-0.3-0.5-0.5-0.7l3-9.1L32,18.4l-3,9.1c-0.6-0.1-1.2,0.2-1.3,0.8c-0.1,0.6,0.2,1.2,0.8,1.3
	c0.5,0.1,1-0.1,1.2-0.6l5.3,0.4L35.1,28.7z"/>
<path d="M36.4,14.1l-0.2,0.5l-0.1,0.3l-0.3-0.1l-4.5-1.5L31,13.2l0.1-0.3l0.2-0.5c-6.3-1-12.7,1.7-16.3,7.1l0.3,0.1l0.3,0.1L15.5,20
	l-2.8,8.5l-0.1,0.3l-0.3-0.1c0.1,9.1,7.5,16.3,16.6,16.2s16.3-7.5,16.2-16.6C45,22.4,41.7,16.9,36.4,14.1z M42.1,33.1
	c-2.5,7.4-10.5,11.4-17.9,8.9s-11.4-10.5-8.9-17.9s10.5-11.4,17.9-8.9l0,0C40.6,17.7,44.6,25.7,42.1,33.1L42.1,33.1z"/>
</svg>
